<svg data-v-423bf9ae="" xmlns="http://www.w3.org/2000/svg" viewBox="0 0 326 90" class="iconLeft"><!----><!----><!----><g data-v-423bf9ae="" id="47458def-5f07-4403-97f4-759849cd7e16" fill="#FFE24D" transform="matrix(5.281689857069749,0,0,5.281689857069749,131.23127664050674,-2.693659086970989)"><path d="M4.20 6.08C3.32 6.08 2.60 6.36 2.18 6.87L2.11 6.24L0.99 6.24L0.99 14.55L2.28 14.55L2.28 8.89C2.28 7.77 2.93 7.21 3.89 7.21C5.10 7.21 5.46 7.81 5.46 9.17L5.46 14.55L6.75 14.55L6.75 8.89C6.75 7.77 7.39 7.21 8.36 7.21C9.56 7.21 9.93 7.81 9.93 9.17L9.93 14.55L11.21 14.55L11.21 9.06C11.21 7.11 10.60 6.08 8.67 6.08C7.63 6.08 6.80 6.47 6.40 7.17C6.03 6.45 5.35 6.08 4.20 6.08ZM14.48 6.24L13.19 6.24L13.19 14.55L14.48 14.55ZM14.49 3.35L13.17 3.35L13.17 4.70L14.49 4.70ZM22.46 6.24L20.90 6.24L18.55 9.51L17.75 9.51L17.75 3.74L16.46 3.74L16.46 14.55L17.75 14.55L17.75 10.65L18.55 10.65L21.27 14.55L22.88 14.55L19.61 10.02ZM28.25 14.55L29.40 14.55L29.40 8.83C29.40 6.79 28.41 6.08 26.71 6.08C24.82 6.08 23.91 6.90 23.91 8.79L25.09 8.79C25.09 7.53 25.65 7.14 26.66 7.14C27.71 7.14 28.17 7.67 28.17 8.90L28.17 9.93C27.78 9.87 27.20 9.83 26.82 9.83C24.60 9.83 23.66 10.64 23.66 12.38C23.66 13.94 24.60 14.71 26.10 14.71C26.98 14.71 27.76 14.43 28.21 13.78ZM28.17 11.80C28.17 13.03 27.33 13.65 26.38 13.65C25.42 13.65 24.95 13.19 24.95 12.26C24.95 11.28 25.45 10.81 26.87 10.81C27.20 10.81 27.79 10.85 28.17 10.91ZM35.59 14.55L36.74 14.55L36.74 8.83C36.74 6.79 35.74 6.08 34.05 6.08C32.16 6.08 31.25 6.90 31.25 8.79L32.42 8.79C32.42 7.53 32.98 7.14 33.99 7.14C35.04 7.14 35.50 7.67 35.50 8.90L35.50 9.93C35.11 9.87 34.54 9.83 34.16 9.83C31.93 9.83 31.00 10.64 31.00 12.38C31.00 13.94 31.93 14.71 33.43 14.71C34.31 14.71 35.10 14.43 35.55 13.78ZM35.50 11.80C35.50 13.03 34.66 13.65 33.71 13.65C32.76 13.65 32.28 13.19 32.28 12.26C32.28 11.28 32.79 10.81 34.20 10.81C34.54 10.81 35.13 10.85 35.50 10.91Z"></path></g><!----><g data-v-423bf9ae="" id="8a4b0ab6-d7ee-43c1-baa2-be00b78fa48a" transform="matrix(1.7297200917670374,0,0,1.7297200917670374,-28.154101752659685,-40.490266891287035)" stroke="none" fill="#FFE24D"><path d="M41.2 26.23l24.65 42.7 1.3-2.26H17.83l1.3 2.26 24.66-42.7a1.5 1.5 0 0 0-2.59-1.51l-24.66 42.7a1.51 1.51 0 0 0 1.3 2.26h49.31a1.51 1.51 0 0 0 1.3-2.26L43.79 24.71a1.5 1.5 0 0 0-2.59 1.52z"></path><path d="M56.21 32.58l24.66 42.71 1.3-2.29H32.85l1.3 2.26L58.8 32.58a1.5 1.5 0 0 0-2.59-1.51l-24.65 42.7A1.51 1.51 0 0 0 32.85 76h49.32a1.51 1.51 0 0 0 1.3-2.26L58.8 31.07a1.5 1.5 0 0 0-2.59 1.51z"></path></g><!----></svg>